<?xml version="1.0" encoding="utf-8"?>
<!-- Generator: Adobe Illustrator 26.2.1, SVG Export Plug-In . SVG Version: 6.00 Build 0)  -->
<svg version="1.1" id="레이어_1" xmlns="http://www.w3.org/2000/svg" xmlns:xlink="http://www.w3.org/1999/xlink" x="0px"
	 y="0px" viewBox="0 0 100 100" style="enable-background:new 0 0 100 100;" xml:space="preserve">
<style type="text/css">
	.st0{fill:#FFFFFF;}
</style>
<g transform="translate(0.000000,1772.000000) scale(0.100000,-0.100000)">
	<path class="st0" d="M489.1,17703c-13.9-1.6-26.4-5.5-40.6-12.5c-30.2-15-50-34.3-63.6-61.9c-5.3-10.7-9-21.1-12.1-34
		c-5.1-20.8-7-38.2-9.8-85.5c-1.9-33-3.5-49.6-6.4-66.1c-4.4-25.7-12.1-47.4-23.1-65.6c-8.1-13.5-23.1-30.2-32.8-36.6
		c-23.4-15.5-53.7-17-99.5-5c-12.8,3.4-21.5,6.1-59,18.7c-46.9,15.7-58.9,18.5-76.3,18c-10.1-0.3-13.6-1.2-19.5-5
		c-5.8-3.8-10.1-10.4-12.3-19c-1.7-6.6-2.4-23.1-2.1-45.8c0.4-21,0.9-30.4,2.7-45c5.4-44,18.9-70.8,46.9-92.4
		c16.1-12.4,45.5-30.6,100.2-62.1c44.8-25.7,62.1-36.3,79.7-48.9c41.6-29.6,64-58.1,72.8-92.3c3.9-15.2,4.6-21.8,4.6-44.2
		c0-21.7-0.2-25.6-4.3-59.9c-4.2-35.8-5.2-51.3-4.1-64.4c1.9-23.4,8.5-36.6,23.3-46.4c25.1-16.7,62.1-13.8,107.2,8.5
		c25.6,12.6,49.4,28.6,77.3,51.9c26.8,22.3,45.7,33.4,70.1,41.5c18.5,6.1,31.8,8.3,53,8.8c35.7,0.7,67.5-4.7,135.8-23.1
		c28.6-7.7,43.2-11.1,59.6-13.6c6.8-1.1,10.8-1.3,22.1-1.3c15.4-0.1,21.8,0.8,31.8,4.3c13.6,4.8,25.7,13.6,35,25.6
		c9.7,12.4,13.7,22.6,14.4,36.8c0.9,16.8-4.2,35.5-16,59c-8.1,16.2-16.2,29.8-38.6,64.3c-26.4,40.8-36.2,57.2-45.9,77
		c-8.5,17.2-12.7,28.9-15,42c-5.6,31.3,1,60.9,21.7,97.5c5.5,9.6,10.8,18,26.7,42.1c7.8,11.9,16.6,25.6,19.6,30.5
		c14,23.3,29,56.5,38.8,86.1c23.4,70.3,21.4,123-5.9,150.9c-7.1,7.3-14.4,11.7-22.6,13.8c-5.1,1.3-16.3,0.9-22.5-0.9
		c-9.8-2.8-23.3-10.6-35.4-20.6c-13-10.7-24.3-22.2-44.3-45.5c-17.4-20.1-20.8-23.6-27.3-28.4c-13.9-10.4-25.9-15.5-36.1-15.5
		c-7.2,0-18,4-25,9.2c-7.2,5.4-16.8,15.9-24.4,26.8c-5.6,8.1-12.9,20.8-19.7,34.3c-10.3,20.6-16.1,33.9-31.8,74
		c-8.6,21.9-21.4,43.9-35.7,61.1c-5.7,6.8-19.4,20.4-26.1,25.7c-22.8,18.2-49.6,29.8-76.3,32.9
		C510.8,17703.7,496.2,17703.8,489.1,17703z M573.9,17575.3c5-2.4,10.4-8.2,13.3-14c3.3-6.8,4.7-12.4,4.7-20
		c0.1-10.9-2.5-16.5-9.2-19.9c-3.1-1.6-3.9-1.7-8.9-1.7c-5.1,0-5.9,0.2-9.3,1.8c-7.6,3.7-13.7,12.2-16.1,22.5
		c-1,4.1-1.2,6.2-0.9,11.9c0.3,7.7,1.2,11.4,3.8,15.3c2.9,4.4,7.3,6.3,14.2,6.1C569.3,17577.2,570.6,17577,573.9,17575.3z
		 M464.7,17570.6c3.2-1,4.4-1.8,7.1-4.5c2.2-2.2,3.6-4.2,4.5-6.4c3.9-10.5,2.8-31.1-2.3-39.7c-4.5-7.7-13.4-11.5-22.5-9.8
		c-12,2.2-18.9,12.5-18.9,28.3c0,12.3,4.7,24.6,11.2,29.6C448.9,17571.8,457.3,17572.9,464.7,17570.6z"/>
</g>
</svg>
